<svg width="1600" height="900" viewBox="0 0 1600 900" xmlns="http://www.w3.org/2000/svg">
  <rect width="1600" height="900" fill="#0B0B0B"/>
  <!-- Decorative Grid -->
  <pattern id="grid" width="60" height="60" patternUnits="userSpaceOnUse">
    <path d="M 60 0 L 0 0 0 60" fill="none" stroke="#222" stroke-width="1"/>
  </pattern>
  <rect width="1600" height="900" fill="url(#grid)" opacity="0.3" />
  
  <!-- Browser Window Mockup -->
  <rect x="250" y="150" width="1100" height="650" rx="16" fill="#121212" stroke="#333" stroke-width="2"/>
  
  <!-- Browser Top Bar -->
  <rect x="250" y="150" width="1100" height="60" rx="16" fill="#1A1A1A"/>
  <rect x="250" y="194" width="1100" height="16" fill="#1A1A1A"/>
  <line x1="250" y1="210" x2="1350" y2="210" stroke="#333" stroke-width="2"/>
  
  <circle cx="290" cy="180" r="8" fill="#444"/>
  <circle cx="315" cy="180" r="8" fill="#444"/>
  <circle cx="340" cy="180" r="8" fill="#444"/>
  <rect x="380" y="168" width="600" height="24" rx="12" fill="#0B0B0B" stroke="#222" stroke-width="1"/>
  
  <!-- Hero Section -->
  <rect x="350" y="280" width="600" height="40" rx="8" fill="#333"/>
  <rect x="350" y="340" width="400" height="24" rx="4" fill="#222"/>
  <rect x="350" y="380" width="500" height="16" rx="4" fill="#222"/>
  
  <!-- CTA Button -->
  <rect x="350" y="440" width="180" height="48" rx="24" fill="#FF4D00"/>
  <rect x="390" y="460" width="100" height="8" rx="4" fill="#111"/>

  <!-- Hero Image Placeholder -->
  <rect x="1000" y="280" width="250" height="300" rx="12" fill="none" stroke="#FF4D00" stroke-width="4" stroke-dasharray="10 10"/>
  <line x1="1000" y1="280" x2="1250" y2="580" stroke="#FF4D00" stroke-width="2" opacity="0.5"/>
  <line x1="1250" y1="280" x2="1000" y2="580" stroke="#FF4D00" stroke-width="2" opacity="0.5"/>

  <!-- Features Grid -->
  <rect x="350" y="600" width="280" height="120" rx="8" fill="#1A1A1A"/>
  <rect x="660" y="600" width="280" height="120" rx="8" fill="#1A1A1A"/>
  <rect x="970" y="600" width="280" height="120" rx="8" fill="#1A1A1A"/>

  <!-- Header Text -->
  <text x="80" y="80" fill="#FF4D00" font-size="18" font-family="monospace" font-weight="bold">SERVICE // DISEÑO WEB NEXT.JS</text>
</svg>