<svg width="1600" height="900" viewBox="0 0 1600 900" xmlns="http://www.w3.org/2000/svg">
  <rect width="1600" height="900" fill="#0B0B0B"/>
  
  <rect x="100" y="100" width="1400" height="700" rx="20" fill="#111" stroke="#222" stroke-width="2"/>
  
  <!-- Graph Axes -->
  <line x1="200" y1="700" x2="1400" y2="700" stroke="#444" stroke-width="4"/>
  <line x1="200" y1="200" x2="200" y2="700" stroke="#444" stroke-width="4"/>
  
  <!-- Graph Line (SEO Growth) -->
  <path d="M 200 650 Q 500 600 700 450 T 1100 300 T 1400 200" fill="none" stroke="#FF4D00" stroke-width="8"/>
  
  <!-- Gradient under line -->
  <linearGradient id="glow" x1="0%" y1="0%" x2="0%" y2="100%">
    <stop offset="0%" stop-color="#FF4D00" stop-opacity="0.3" />
    <stop offset="100%" stop-color="#FF4D00" stop-opacity="0" />
  </linearGradient>
  <path d="M 200 650 Q 500 600 700 450 T 1100 300 T 1400 200 L 1400 700 L 200 700 Z" fill="url(#glow)"/>

  <!-- Data Points -->
  <circle cx="700" cy="450" r="12" fill="#111" stroke="#FF4D00" stroke-width="4"/>
  <circle cx="1100" cy="300" r="12" fill="#111" stroke="#FF4D00" stroke-width="4"/>
  
  <!-- Annotations -->
  <rect x="580" y="360" width="240" height="60" rx="8" fill="#1A1A1A" stroke="#333" stroke-width="1"/>
  <text x="700" y="395" fill="#FFF" font-size="18" font-family="monospace" text-anchor="middle">Authority Built</text>
  
  <rect x="980" y="210" width="240" height="60" rx="8" fill="#1A1A1A" stroke="#FF4D00" stroke-width="1"/>
  <text x="1100" y="245" fill="#FF4D00" font-size="18" font-family="monospace" text-anchor="middle">High Intent Captured</text>

  <!-- Metric overlay -->
  <rect x="1200" y="550" width="200" height="120" rx="12" fill="#1A1A1A" stroke="#333" stroke-width="1"/>
  <text x="1300" y="600" fill="#FF4D00" font-size="48" font-family="sans-serif" font-weight="bold" text-anchor="middle">+123%</text>
  <text x="1300" y="630" fill="#888" font-size="16" font-family="monospace" text-anchor="middle">Organic Traffic</text>

  <!-- Header Text -->
  <text x="100" y="60" fill="#FF4D00" font-size="20" font-family="monospace" font-weight="bold">SERVICE // SEO &amp; AEO</text>
</svg>